<?xml version="1.0" encoding="UTF-8" standalone="no"?>
<svg
   height="24px"
   viewBox="0 0 24 24"
   width="24px"
   version="1.1"
   id="svg3752"
   sodipodi:docname="catalogue.svg"
   inkscape:version="1.1.1 (3bf5ae0d25, 2021-09-20)"
   xmlns:inkscape="http://www.inkscape.org/namespaces/inkscape"
   xmlns:sodipodi="http://sodipodi.sourceforge.net/DTD/sodipodi-0.dtd"
   xmlns="http://www.w3.org/2000/svg"
   xmlns:svg="http://www.w3.org/2000/svg">
  <defs
     id="defs3756" />
  <sodipodi:namedview
     id="namedview3754"
     pagecolor="#ffffff"
     bordercolor="#666666"
     borderopacity="1.0"
     inkscape:pageshadow="2"
     inkscape:pageopacity="0.0"
     inkscape:pagecheckerboard="0"
     showgrid="false"
     inkscape:zoom="33.708333"
     inkscape:cx="12"
     inkscape:cy="12"
     inkscape:window-width="1920"
     inkscape:window-height="1017"
     inkscape:window-x="-8"
     inkscape:window-y="-8"
     inkscape:window-maximized="1"
     inkscape:current-layer="svg3752" />
  <path
     d="M0 0h24v24H0z"
     fill="none"
     id="path3748" />
  <path
     d="m 2.53,19.65 1.34,0.56 v -9.03 l -2.43,5.86 c -0.41,1.02 0.08,2.19 1.09,2.61 z M 22.03,15.95 17.07,3.98 C 16.76,3.23 16.03,2.77 15.26,2.75 15,2.75 14.73,2.79 14.47,2.9 L 7.1,5.95 C 6.35,6.26 5.89,6.98 5.87,7.75 5.86,8.02 5.91,8.29 6.02,8.55 l 4.96,11.97 c 0.31,0.76 1.05,1.22 1.83,1.23 0.26,0 0.52,-0.05 0.77,-0.15 l 7.36,-3.05 c 1.02,-0.42 1.51,-1.59 1.09,-2.6 z m -16.15,3.8 c 0,1.1 0.9,2 2,2 H 9.33 L 5.88,13.41 Z"
     id="path3750"
     sodipodi:nodetypes="cccccccccccccccccssccs" />
</svg>
