<?xml version="1.0" encoding="UTF-8" standalone="no"?>
<!-- Created with Inkscape (http://www.inkscape.org/) -->

<svg
   width="500"
   height="500"
   viewBox="0 0 132.29166 132.29167"
   version="1.1"
   id="svg4769"
   inkscape:version="1.1.1 (3bf5ae0d25, 2021-09-20)"
   inkscape:export-xdpi="96"
   inkscape:export-ydpi="96"
   xmlns:inkscape="http://www.inkscape.org/namespaces/inkscape"
   xmlns:sodipodi="http://sodipodi.sourceforge.net/DTD/sodipodi-0.dtd"
   xmlns="http://www.w3.org/2000/svg"
   xmlns:svg="http://www.w3.org/2000/svg">
  <sodipodi:namedview
     id="namedview4771"
     pagecolor="#ffffff"
     bordercolor="#666666"
     borderopacity="1.0"
     inkscape:pageshadow="2"
     inkscape:pageopacity="0.0"
     inkscape:pagecheckerboard="0"
     inkscape:document-units="mm"
     showgrid="false"
     units="px"
     inkscape:zoom="0.77682379"
     inkscape:cx="211.75974"
     inkscape:cy="178.29011"
     inkscape:window-width="1920"
     inkscape:window-height="1017"
     inkscape:window-x="-8"
     inkscape:window-y="-8"
     inkscape:window-maximized="1"
     inkscape:current-layer="layer1" />
  <defs
     id="defs4766" />
  <g
     inkscape:label="pattern"
     inkscape:groupmode="layer"
     id="layer1"
     style="display:inline">
    <path
       id="path2493"
       style="color:#000000;display:inline;fill-opacity:1;stroke:none;stroke-width:3.77953;stroke-linecap:round;stroke-linejoin:round;stroke-miterlimit:4;stroke-dasharray:none"
       d="M 53.554688,0 C 23.978599,0.00377953 0.00449764,23.978599 0,53.554688 0.00139843,299.46651 200.50441,499.96974 446.43359,499.99805 c 29.579,-4.2e-4 53.56,-23.97765 53.56446,-53.55664 V 53.554688 C 499.99427,23.978599 476.01749,0.00445984 446.44141,0 Z M 226.71094,100.00977 c 2.3291,0.0439 4.54687,0.24218 6.65625,0.59375 2.89062,0.39062 5.35156,1.05468 7.38281,1.99218 2.10937,0.85938 3.47656,1.95313 4.10156,3.28125 l 0.11719,0.35157 c 0.15625,0.23438 0.42968,0.89844 0.82031,1.99218 0.46875,1.09375 1.13282,2.77344 1.99219,5.03907 0.9375,2.26562 2.22656,5.42968 3.86719,9.49218 1.64062,4.0625 3.71094,9.21875 6.21094,15.46875 2.5,6.25 5.54687,13.86719 9.14062,22.85157 3.67188,8.98437 7.92969,19.53124 12.77344,31.64062 4.92187,12.03125 10.58593,25.9375 16.99218,41.71875 6.48438,-15.9375 12.18751,-29.96094 17.10938,-42.07031 4.92187,-12.1875 9.17969,-22.77344 12.77344,-31.75781 3.67187,-9.0625 6.75781,-16.67969 9.25781,-22.85157 2.57812,-6.25 4.64844,-11.36718 6.21094,-15.35156 1.64062,-4.0625 2.89062,-7.1875 3.75,-9.375 0.9375,-2.26562 1.60156,-3.90625 1.99219,-4.92187 0.46875,-1.09375 0.74218,-1.71875 0.82031,-1.875 l 0.11719,-0.35157 c 0.54687,-1.32812 1.875,-2.42187 3.98437,-3.28125 2.10938,-0.9375 4.57031,-1.60156 7.38281,-1.99218 2.89063,-0.46875 5.89844,-0.664067 9.02344,-0.58594 3.20312,0 6.13281,0.23437 8.78906,0.70312 2.73436,0.46875 4.99999,1.17188 6.79688,2.10938 1.875,0.9375 2.92968,2.07031 3.16406,3.39844 0.23433,1.48437 0.62495,4.25781 1.17188,8.32031 0.54687,4.0625 1.17188,9.02343 1.875,14.88281 0.78125,5.85937 1.64062,12.46094 2.57812,19.80469 1.01561,7.34375 2.03124,15.11719 3.04688,23.32031 1.01563,8.125 2.07031,16.48437 3.16406,25.07813 1.17188,8.59374 2.30469,17.10937 3.39844,25.54687 1.09374,8.35938 2.10937,16.48438 3.04687,24.375 1.01563,7.8125 1.95314,15 2.8125,21.5625 0.85939,6.5625 1.60158,12.34375 2.22656,17.34375 0.70315,5 1.25,8.82813 1.64063,11.48438 0.3906,2.73437 -0.35157,5.03906 -2.22656,6.91406 -1.79687,1.875 -4.1797,3.35937 -7.14844,4.45312 -2.96877,1.09375 -6.25,1.79688 -9.84375,2.10938 -3.59375,0.39062 -6.99219,0.39062 -10.19531,0 -3.12499,-0.3125 -5.82031,-1.01563 -8.08594,-2.10938 -2.1875,-1.01562 -3.35938,-2.34375 -3.51563,-3.98437 L 358.40625,190.60352 c -2.89063,7.34375 -5.82031,14.84375 -8.78906,22.5 -2.89063,7.57812 -5.78125,15.03906 -8.67188,22.38281 -2.89062,7.26562 -5.66406,14.33593 -8.32031,21.21094 -2.65625,6.79687 -5.11719,13.04687 -7.38281,18.75 -2.26563,5.625 -4.29688,10.625 -6.09375,15 -1.71875,4.29687 -3.08594,7.65625 -4.10156,10.07812 -0.54688,1.25 -1.75782,2.30469 -3.63282,3.16406 -1.875,0.78125 -4.0625,1.40625 -6.5625,1.875 -2.5,0.39063 -5.19531,0.58594 -8.08594,0.58594 -2.8125,0 -5.50781,-0.19531 -8.08593,-0.58594 -2.5,-0.39062 -4.6875,-1.01562 -6.5625,-1.875 -1.79688,-0.85937 -2.96875,-1.91406 -3.51563,-3.16406 -1.01562,-2.42187 -2.42187,-5.78125 -4.21875,-10.07812 -1.71875,-4.375 -3.71093,-9.375 -5.97656,-15 -2.26563,-5.70313 -4.72656,-11.95313 -7.38281,-18.75 -2.65625,-6.87501 -5.42969,-13.94532 -8.32032,-21.21094 -2.89062,-7.34375 -5.82031,-14.80469 -8.78906,-22.38281 -2.96875,-7.65625 -5.85937,-15.15625 -8.67187,-22.5 l -13.47657,114.72656 c -0.23438,1.64062 -1.44531,2.96875 -3.63281,3.98437 -2.1875,1.09375 -4.88281,1.79688 -8.08593,2.10938 -3.12501,0.39062 -6.48438,0.39062 -10.07813,0 -3.59375,-0.3125 -6.875,-1.01563 -9.84375,-2.10938 -2.96875,-1.09375 -5.39062,-2.57812 -7.26562,-4.45312 -1.79688,-1.875 -2.5,-4.17969 -2.10938,-6.91406 0.39062,-2.65625 0.89844,-6.48438 1.52344,-11.48438 0.70312,-5 1.48437,-10.78125 2.34375,-17.34375 0.85937,-6.5625 1.75781,-13.75 2.69531,-21.5625 1.01562,-7.89062 2.07031,-16.01562 3.16406,-24.375 1.09375,-8.4375 2.1875,-16.95313 3.28125,-25.54687 1.17188,-8.59376 2.26563,-16.95313 3.28125,-25.07813 1.01563,-8.20312 1.99219,-15.97656 2.92969,-23.32031 1.01562,-7.34375 1.875,-13.94532 2.57813,-19.80469 0.78124,-5.85938 1.44531,-10.82031 1.99218,-14.88281 0.54688,-4.0625 0.9375,-6.83594 1.17188,-8.32031 0.23438,-1.32813 1.25,-2.46094 3.04687,-3.39844 1.875,-0.9375 4.14063,-1.64063 6.79688,-2.10938 2.73437,-0.46875 5.66406,-0.70312 8.78906,-0.70312 0.80078,-0.01954 1.59082,-0.02246 2.36719,-0.008 z"
       transform="scale(0.26458333)" />
  </g>
</svg>
