<?xml version="1.0" encoding="UTF-8" standalone="no"?>
<!-- Created with Inkscape (http://www.inkscape.org/) -->

<svg
   width="500"
   height="500"
   viewBox="0 0 132.29166 132.29167"
   version="1.1"
   id="svg4769"
   inkscape:version="1.1.1 (3bf5ae0d25, 2021-09-20)"
   sodipodi:docname="favicon.svg"
   inkscape:export-filename="D:\devzone\material-flashcard\material-flashcard.png"
   inkscape:export-xdpi="96"
   inkscape:export-ydpi="96"
   xmlns:inkscape="http://www.inkscape.org/namespaces/inkscape"
   xmlns:sodipodi="http://sodipodi.sourceforge.net/DTD/sodipodi-0.dtd"
   xmlns="http://www.w3.org/2000/svg"
   xmlns:svg="http://www.w3.org/2000/svg">
  <sodipodi:namedview
     id="namedview4771"
     pagecolor="#ffffff"
     bordercolor="#666666"
     borderopacity="1.0"
     inkscape:pageshadow="2"
     inkscape:pageopacity="0.0"
     inkscape:pagecheckerboard="0"
     inkscape:document-units="mm"
     showgrid="false"
     units="px"
     inkscape:zoom="0.77682379"
     inkscape:cx="322.46695"
     inkscape:cy="206.61056"
     inkscape:window-width="1366"
     inkscape:window-height="705"
     inkscape:window-x="-8"
     inkscape:window-y="-8"
     inkscape:window-maximized="1"
     inkscape:current-layer="text6680" />
  <defs
     id="defs4766" />
  <g
     inkscape:label="Layer 1"
     inkscape:groupmode="layer"
     id="layer1"
     style="display:inline">
    <path
       id="path13583"
       style="fill:#ffd100;fill-opacity:1;stroke:#ffd100;stroke-width:28.3413;stroke-linecap:round;stroke-linejoin:round;stroke-miterlimit:4;stroke-dasharray:none;stroke-opacity:1"
       d="M 14.170677,14.170677 A 103.96228,103.95095 0 0 0 118.12099,118.12103 V 14.170677 Z" />
  </g>
  <g
     inkscape:groupmode="layer"
     id="layer3"
     inkscape:label="label">
    <g
       aria-label="M"
       id="text6680"
       style="font-size:63.5px;line-height:1.25;fill:#ffffff;stroke-width:0.264583">
      <path
         d="m 64.783783,28.013054 q 0,0 0.03101,0.09302 0.06201,0.09302 0.217041,0.5271 0.186035,0.434082 0.527099,1.333252 0.372071,0.89917 1.023194,2.511475 0.651123,1.612304 1.64331,4.092773 0.992188,2.480469 2.418457,6.046143 1.457276,3.565673 3.379639,8.371582 1.953369,4.774902 4.49585,11.038086 2.573486,-6.325196 4.526855,-11.131104 1.953369,-4.836914 3.379639,-8.402588 1.457275,-3.596679 2.449463,-6.046142 1.023193,-2.480469 1.64331,-4.061768 0.651123,-1.612305 0.992188,-2.480469 0.37207,-0.89917 0.527099,-1.302246 0.186036,-0.434082 0.217041,-0.496094 0.03101,-0.09302 0.03101,-0.09302 0.217041,-0.5271 1.054199,-0.868164 0.837159,-0.37207 1.95337,-0.5271 1.147216,-0.186035 2.387451,-0.155029 1.27124,0 2.325442,0.186035 1.0852,0.186035 1.79834,0.558106 0.74414,0.37207 0.83716,0.899169 0.093,0.589112 0.31006,2.201416 0.21704,1.612305 0.49609,3.937745 0.31006,2.325439 0.68213,5.23999 0.40307,2.914551 0.80615,6.170166 0.40308,3.224609 0.83716,6.635254 0.46509,3.410644 0.89917,6.759277 0.43408,3.317627 0.80615,6.449219 0.40308,3.100586 0.74414,5.705078 0.34107,2.604492 0.58911,4.588867 0.27906,1.984375 0.43409,3.038574 0.15502,1.085205 -0.58912,1.829346 -0.71313,0.744141 -1.89135,1.178223 -1.17823,0.434082 -2.6045,0.558105 -1.42627,0.15503 -2.69751,0 -1.24023,-0.124023 -2.139402,-0.558105 -0.868164,-0.403076 -0.930175,-1.054199 L 94.828461,50.43029 q -1.147217,2.914551 -2.32544,5.953125 -1.147217,3.007569 -2.294433,5.922119 -1.147217,2.883545 -2.201416,5.612061 -1.0542,2.69751 -1.95337,4.960937 -0.899169,2.232422 -1.612304,3.96875 -0.682129,1.705323 -1.085205,2.666504 -0.217041,0.496094 -0.961182,0.837159 -0.744141,0.310058 -1.736328,0.496093 -0.992188,0.15503 -2.139404,0.15503 -1.116211,0 -2.139405,-0.15503 -0.992187,-0.155029 -1.736328,-0.496093 -0.713135,-0.341065 -0.930176,-0.837159 -0.403076,-0.961181 -1.11621,-2.666504 -0.682129,-1.736328 -1.581299,-3.96875 -0.89917,-2.263427 -1.953369,-4.960937 -1.0542,-2.728516 -2.201416,-5.612061 -1.147217,-2.91455 -2.32544,-5.922119 -1.178223,-3.038574 -2.294434,-5.953125 l -3.565673,30.354737 q -0.09302,0.651123 -0.961182,1.054199 -0.868164,0.434082 -2.139404,0.558105 -1.240235,0.15503 -2.666504,0 -1.42627,-0.124023 -2.604492,-0.558105 -1.178223,-0.434082 -1.922364,-1.178223 -0.713134,-0.744141 -0.558105,-1.829346 0.155029,-1.054199 0.403076,-3.038574 0.279053,-1.984375 0.620117,-4.588867 0.341065,-2.604492 0.713135,-5.705078 0.403076,-3.131592 0.837158,-6.449219 0.434082,-3.348633 0.868164,-6.759277 0.465088,-3.410645 0.868164,-6.635254 0.403077,-3.255615 0.775147,-6.170166 0.403076,-2.914551 0.682129,-5.23999 0.310058,-2.32544 0.527099,-3.937745 0.217041,-1.612304 0.310059,-2.201416 0.09302,-0.527099 0.806152,-0.899169 0.744141,-0.372071 1.79834,-0.558106 1.085205,-0.186035 2.32544,-0.186035 1.27124,-0.03101 2.387451,0.155029 1.147217,0.15503 1.953369,0.5271 0.837158,0.341064 1.085205,0.868164 z"
         style="font-family:'KG Red Hands';-inkscape-font-specification:'KG Red Hands'"
         id="path938" />
    </g>
  </g>
  <g
     inkscape:groupmode="layer"
     id="layer2"
     inkscape:label="grid"
     style="display:none"
     sodipodi:insensitive="true">
    <path
       style="fill:none;stroke:#f609e7;stroke-width:0.264583;stroke-linecap:butt;stroke-linejoin:miter;stroke-miterlimit:4;stroke-dasharray:none;stroke-opacity:1"
       d="M -33.922342,79.507291 H 166.21401"
       id="path5148-9" />
    <path
       style="display:inline;fill:none;stroke:#f609e7;stroke-width:0.264583;stroke-linecap:butt;stroke-linejoin:miter;stroke-miterlimit:4;stroke-dasharray:none;stroke-opacity:1"
       d="M -33.922229,105.96562 H 166.21412"
       id="path5148-9-4" />
    <path
       style="fill:none;stroke:#f609e7;stroke-width:0.264583;stroke-linecap:butt;stroke-linejoin:miter;stroke-miterlimit:4;stroke-dasharray:none;stroke-opacity:1"
       d="M -33.922345,53.048958 H 166.21401"
       id="path5148-6" />
    <path
       style="fill:none;stroke:#f609e7;stroke-width:0.264583;stroke-linecap:butt;stroke-linejoin:miter;stroke-miterlimit:4;stroke-dasharray:none;stroke-opacity:1"
       d="M -33.922344,26.590625 H 166.21401"
       id="path5148" />
    <path
       style="fill:none;stroke:#f609e7;stroke-width:0.264583;stroke-linecap:butt;stroke-linejoin:miter;stroke-miterlimit:4;stroke-dasharray:none;stroke-opacity:1"
       d="M 26.590625,-33.922342 V 166.21401"
       id="path5148-61" />
    <path
       style="fill:none;stroke:#f609e7;stroke-width:0.264583;stroke-linecap:butt;stroke-linejoin:miter;stroke-miterlimit:4;stroke-dasharray:none;stroke-opacity:1"
       d="M 53.048958,-33.922341 V 166.21401"
       id="path5148-61-6" />
    <path
       style="fill:none;stroke:#f609e7;stroke-width:0.264583;stroke-linecap:butt;stroke-linejoin:miter;stroke-miterlimit:4;stroke-dasharray:none;stroke-opacity:1"
       d="M 79.507291,-33.922341 V 166.21401"
       id="path5148-61-2" />
    <path
       style="fill:none;stroke:#f609e7;stroke-width:0.264583;stroke-linecap:butt;stroke-linejoin:miter;stroke-miterlimit:4;stroke-dasharray:none;stroke-opacity:1"
       d="M 105.96562,-33.922347 V 166.21401"
       id="path5148-61-2-6" />
  </g>
</svg>
